<mxfile host="app.diagrams.net" modified="2021-02-15T03:54:05.834Z" agent="5.0 (Windows)" etag="XGCGTFVzja8uhDyilxVz" version="14.3.1" type="github">
  <diagram id="ydw8AFUS9a0xZyKnt8qM" name="Page-1">
    <mxGraphModel dx="1182" dy="772" grid="1" gridSize="10" guides="1" tooltips="1" connect="1" arrows="1" fold="1" page="1" pageScale="1" pageWidth="850" pageHeight="1100" math="0" shadow="0">
      <root>
        <mxCell id="0" />
        <mxCell id="1" parent="0" />
        <mxCell id="1_TsZxtXyOm5GQ7pMM07-7" style="edgeStyle=orthogonalEdgeStyle;rounded=0;orthogonalLoop=1;jettySize=auto;html=1;" parent="1" source="1_TsZxtXyOm5GQ7pMM07-1" edge="1">
          <mxGeometry relative="1" as="geometry">
            <mxPoint x="295" y="190" as="targetPoint" />
          </mxGeometry>
        </mxCell>
        <mxCell id="1_TsZxtXyOm5GQ7pMM07-1" value="RTI_ISR" style="rounded=1;whiteSpace=wrap;html=1;" parent="1" vertex="1">
          <mxGeometry x="240" y="130" width="110" height="40" as="geometry" />
        </mxCell>
        <mxCell id="1_TsZxtXyOm5GQ7pMM07-2" value="Retorno" style="rounded=1;whiteSpace=wrap;html=1;" parent="1" vertex="1">
          <mxGeometry x="240" y="712" width="110" height="40" as="geometry" />
        </mxCell>
        <mxCell id="1_TsZxtXyOm5GQ7pMM07-8" value="" style="edgeStyle=orthogonalEdgeStyle;rounded=0;orthogonalLoop=1;jettySize=auto;html=1;" parent="1" source="1_TsZxtXyOm5GQ7pMM07-3" target="1_TsZxtXyOm5GQ7pMM07-4" edge="1">
          <mxGeometry relative="1" as="geometry" />
        </mxCell>
        <mxCell id="1_TsZxtXyOm5GQ7pMM07-3" value="CRGFLG.7 &amp;lt;- 1" style="rounded=0;whiteSpace=wrap;html=1;" parent="1" vertex="1">
          <mxGeometry x="240" y="191" width="110" height="40" as="geometry" />
        </mxCell>
        <mxCell id="1_TsZxtXyOm5GQ7pMM07-9" value="" style="edgeStyle=orthogonalEdgeStyle;rounded=0;orthogonalLoop=1;jettySize=auto;html=1;" parent="1" source="1_TsZxtXyOm5GQ7pMM07-4" target="1_TsZxtXyOm5GQ7pMM07-6" edge="1">
          <mxGeometry relative="1" as="geometry" />
        </mxCell>
        <mxCell id="1_TsZxtXyOm5GQ7pMM07-13" style="edgeStyle=orthogonalEdgeStyle;rounded=0;orthogonalLoop=1;jettySize=auto;html=1;entryX=0;entryY=0.5;entryDx=0;entryDy=0;" parent="1" source="1_TsZxtXyOm5GQ7pMM07-4" target="1_TsZxtXyOm5GQ7pMM07-10" edge="1">
          <mxGeometry relative="1" as="geometry">
            <Array as="points">
              <mxPoint x="200" y="278" />
              <mxPoint x="200" y="408" />
            </Array>
          </mxGeometry>
        </mxCell>
        <mxCell id="1_TsZxtXyOm5GQ7pMM07-4" value="Cont_Reb = 0" style="shape=hexagon;perimeter=hexagonPerimeter2;whiteSpace=wrap;html=1;fixedSize=1;" parent="1" vertex="1">
          <mxGeometry x="235" y="253" width="120" height="50" as="geometry" />
        </mxCell>
        <mxCell id="1_TsZxtXyOm5GQ7pMM07-11" value="" style="edgeStyle=orthogonalEdgeStyle;rounded=0;orthogonalLoop=1;jettySize=auto;html=1;" parent="1" source="1_TsZxtXyOm5GQ7pMM07-6" target="1_TsZxtXyOm5GQ7pMM07-10" edge="1">
          <mxGeometry relative="1" as="geometry" />
        </mxCell>
        <mxCell id="1_TsZxtXyOm5GQ7pMM07-6" value="Cont_Reb &amp;lt;- Cont_reb -1" style="rounded=0;whiteSpace=wrap;html=1;" parent="1" vertex="1">
          <mxGeometry x="220" y="333" width="150" height="40" as="geometry" />
        </mxCell>
        <mxCell id="dqeOHaBh1mKaNVPjjmo3-10" value="" style="edgeStyle=orthogonalEdgeStyle;rounded=0;orthogonalLoop=1;jettySize=auto;html=1;" parent="1" target="dqeOHaBh1mKaNVPjjmo3-5" edge="1">
          <mxGeometry relative="1" as="geometry">
            <mxPoint x="295" y="490" as="sourcePoint" />
          </mxGeometry>
        </mxCell>
        <mxCell id="HzZsEaRdyIgh0KZAga-k-3" value="" style="edgeStyle=orthogonalEdgeStyle;rounded=0;orthogonalLoop=1;jettySize=auto;html=1;" parent="1" source="1_TsZxtXyOm5GQ7pMM07-10" target="HzZsEaRdyIgh0KZAga-k-1" edge="1">
          <mxGeometry relative="1" as="geometry" />
        </mxCell>
        <mxCell id="1_TsZxtXyOm5GQ7pMM07-10" value="" style="ellipse;whiteSpace=wrap;html=1;aspect=fixed;" parent="1" vertex="1">
          <mxGeometry x="280" y="393" width="30" height="30" as="geometry" />
        </mxCell>
        <mxCell id="1_TsZxtXyOm5GQ7pMM07-14" value="Sí" style="text;html=1;align=center;verticalAlign=middle;resizable=0;points=[];autosize=1;" parent="1" vertex="1">
          <mxGeometry x="205" y="260" width="30" height="20" as="geometry" />
        </mxCell>
        <mxCell id="dqeOHaBh1mKaNVPjjmo3-1" value="" style="edgeStyle=orthogonalEdgeStyle;rounded=0;orthogonalLoop=1;jettySize=auto;html=1;" parent="1" source="dqeOHaBh1mKaNVPjjmo3-3" edge="1">
          <mxGeometry relative="1" as="geometry">
            <mxPoint x="295.0999999999999" y="600" as="targetPoint" />
          </mxGeometry>
        </mxCell>
        <mxCell id="dqeOHaBh1mKaNVPjjmo3-2" style="edgeStyle=orthogonalEdgeStyle;rounded=0;orthogonalLoop=1;jettySize=auto;html=1;entryX=0;entryY=0.5;entryDx=0;entryDy=0;" parent="1" source="dqeOHaBh1mKaNVPjjmo3-3" target="dqeOHaBh1mKaNVPjjmo3-6" edge="1">
          <mxGeometry relative="1" as="geometry">
            <Array as="points">
              <mxPoint x="150" y="545" />
              <mxPoint x="150" y="667" />
            </Array>
          </mxGeometry>
        </mxCell>
        <mxCell id="dqeOHaBh1mKaNVPjjmo3-3" value="TIMTER_CUENTA= 0" style="shape=hexagon;perimeter=hexagonPerimeter2;whiteSpace=wrap;html=1;fixedSize=1;" parent="1" vertex="1">
          <mxGeometry x="222.5" y="520" width="145" height="50" as="geometry" />
        </mxCell>
        <mxCell id="dqeOHaBh1mKaNVPjjmo3-4" value="" style="edgeStyle=orthogonalEdgeStyle;rounded=0;orthogonalLoop=1;jettySize=auto;html=1;" parent="1" source="dqeOHaBh1mKaNVPjjmo3-5" target="dqeOHaBh1mKaNVPjjmo3-6" edge="1">
          <mxGeometry relative="1" as="geometry" />
        </mxCell>
        <mxCell id="dqeOHaBh1mKaNVPjjmo3-5" value="TIMTER_CUENTA &amp;lt;- TIMTER_CUENTA -1" style="rounded=0;whiteSpace=wrap;html=1;" parent="1" vertex="1">
          <mxGeometry x="176.25" y="592" width="237.5" height="40" as="geometry" />
        </mxCell>
        <mxCell id="dqeOHaBh1mKaNVPjjmo3-9" value="" style="edgeStyle=orthogonalEdgeStyle;rounded=0;orthogonalLoop=1;jettySize=auto;html=1;" parent="1" source="dqeOHaBh1mKaNVPjjmo3-6" target="1_TsZxtXyOm5GQ7pMM07-2" edge="1">
          <mxGeometry relative="1" as="geometry" />
        </mxCell>
        <mxCell id="dqeOHaBh1mKaNVPjjmo3-6" value="" style="ellipse;whiteSpace=wrap;html=1;aspect=fixed;" parent="1" vertex="1">
          <mxGeometry x="280" y="652" width="30" height="30" as="geometry" />
        </mxCell>
        <mxCell id="dqeOHaBh1mKaNVPjjmo3-7" value="Sí" style="text;html=1;align=center;verticalAlign=middle;resizable=0;points=[];autosize=1;" parent="1" vertex="1">
          <mxGeometry x="192.5" y="520" width="30" height="20" as="geometry" />
        </mxCell>
        <mxCell id="HzZsEaRdyIgh0KZAga-k-2" style="edgeStyle=orthogonalEdgeStyle;rounded=0;orthogonalLoop=1;jettySize=auto;html=1;entryX=1;entryY=0.5;entryDx=0;entryDy=0;" parent="1" source="HzZsEaRdyIgh0KZAga-k-1" target="dqeOHaBh1mKaNVPjjmo3-6" edge="1">
          <mxGeometry relative="1" as="geometry">
            <Array as="points">
              <mxPoint x="450" y="465" />
              <mxPoint x="450" y="667" />
            </Array>
          </mxGeometry>
        </mxCell>
        <mxCell id="HzZsEaRdyIgh0KZAga-k-1" value="Banderas.3 = 1" style="shape=hexagon;perimeter=hexagonPerimeter2;whiteSpace=wrap;html=1;fixedSize=1;" parent="1" vertex="1">
          <mxGeometry x="222.5" y="440" width="145" height="50" as="geometry" />
        </mxCell>
        <mxCell id="HzZsEaRdyIgh0KZAga-k-4" value="Sí" style="text;html=1;align=center;verticalAlign=middle;resizable=0;points=[];autosize=1;" parent="1" vertex="1">
          <mxGeometry x="355" y="440" width="30" height="20" as="geometry" />
        </mxCell>
        <mxCell id="HzZsEaRdyIgh0KZAga-k-5" value="No" style="text;html=1;align=center;verticalAlign=middle;resizable=0;points=[];autosize=1;" parent="1" vertex="1">
          <mxGeometry x="305" y="490" width="30" height="20" as="geometry" />
        </mxCell>
      </root>
    </mxGraphModel>
  </diagram>
</mxfile>
